<?xml version="1.0" encoding="UTF-8"?>
<svg id="Layer_1" data-name="Layer 1" xmlns="http://www.w3.org/2000/svg" version="1.1" viewBox="0 0 241.6 75.3">
  <defs>
    <style>
      .cls-1 {
        fill: #fff;
        fill-rule: evenodd;
        stroke-width: 0px;
      }
    </style>
  </defs>
  <path class="cls-1" d="M55.2,17.9c-1.9-8.6-2.5-10-3.5-16.8-1.4.3-2.9.4-4.4.4s-1.9-.1-3.6-.4c-4.7,8.9-5.5,9.8-13.8,24.1l-9.5,16.5c-6.2,10.8-12.7,21.3-19.2,31.9,1.9-.3,4.1-.6,5.4-.6s3.3.2,4.6.6c3.5-7.5,7.5-14.9,11.5-22,4.5,0,9,0,13.5,0s7.8,0,11.6,0c1.8,7.2,2.7,14.7,3.2,22,2.8-.3,6.6-.6,8.8-.6s5.8.3,8.7.6c-1.6-5.4-2.1-7.3-3.5-13.5l-2.8-12.4-6.8-29.8h0ZM41.1,20.6l2.9,12.7,2.5,12.1c-3.7.1-7.4.1-11.1.1s-5.1,0-9.2-.1l15-24.8h0Z"/>
  <path class="cls-1" d="M89.4,27.3l.2-4.7c1,0,1.4,0,2.1,0,3.1,0,7.1.3,12.8,1.1-.2-1.4-.2-1.9-.2-3.1s0-2.4.2-4.2c-7.7.3-15.3.7-23.1.7s-13.3-.3-19.9-.7c.4,1.4.4,1.8.4,3.5s0,2-.4,3.8c5-.7,10.2-1,15.2-1,.2,3.5.2,7.1.2,10.6v13.3c-.2,8.9-.7,17.8-1,26.7,2.6-.3,3.5-.4,6.1-.4s4.4,0,7.6.4c-.4-8.9-.6-22.7-.5-26.5l.3-19.4h0Z"/>
  <path class="cls-1" d="M132.8,27.5c1-4.2,1.5-5.6,2.8-8.1-4.3-2.9-8.1-4-13.7-4-11.5,0-18.9,6.7-18.9,17.2,0,18.3,24.7,16.1,24.7,28.2s-4.2,8.5-9.8,8.5-10.5-3.4-11.7-9.1h-1.8c-.4,3.1-1.3,7-2.4,10.3,4.7,2.6,8.4,3.6,13.7,3.6,13.5,0,21.9-7.2,21.9-18.5,0-18.3-24.7-16-24.7-27.9s3.8-7.5,8.8-7.5,8.2,2.6,9.7,7.2h1.4Z"/>
  <path class="cls-1" d="M140.7,73.2c3.1-.3,4.5-.4,7.7-.4,5.3,0,10.6.4,15.9.4,17.7,0,30.8-12,30.8-29.9s-3.7-17.3-9.8-22c-5-3.7-10.6-5.1-21.3-5.1s-11.2.4-16.8.4-3.5,0-6.6-.4c.6,10.4.8,14.1.8,26.4s0,15.7-.8,30.5h0ZM178.9,57.3c-3.3,7.6-9.2,11-19,11s-3.5,0-6.1-.3c0-7.3-.3-14.6-.3-21.9s0-16.5.5-24.7c3.4-.3,5-.4,6.9-.4,4.8,0,8.5.8,11.2,2.2,6,3.2,9.5,10.7,9.5,20.8s-1.3,10-2.7,13.3h0Z"/>
  <path class="cls-1" d="M198.3,61.9c0,3.8-.2,5.8-.8,11.1,2.9-.3,4-.3,6.5-.3s4,0,6.9.6c-.3-4.9-.4-6.4-.4-9l-.2-8.5c0-2.6,0-5.1,0-7.7s.2-1.1.6-1.1.3,0,.9,1.3c4.9,8.2,9.8,16.6,14.1,25.1,2.9-.2,4.1-.3,6.6-.3s4.2,0,8.3.3l-3.7-5.9-7.4-11.5c-3.7-5.8-4.4-6.9-6.6-10.7,7.5-2,13.4-6.3,13.4-14.7s-8.6-14.3-17.9-14.3-8.8.4-13.2.4-2.9,0-7.5-.4c.4,8.7.6,13.4.6,21.9,0,17.8-.2,22.9-.2,23.9h0ZM210.3,43.5c.3-7.5,0-15,.3-22.5,1.5,0,1.9,0,2.6,0,7,0,10.3,3.4,10.3,10.4s-4.8,12.1-13.2,12.1h0Z"/>
</svg>
